<svg version="1.1" id="Layer_1" xmlns="http://www.w3.org/2000/svg" xmlns:xlink="http://www.w3.org/1999/xlink" x="0px" y="0px"
	 width="100%" viewBox="0 0 1024 1024" enable-background="new 0 0 1024 1024" xml:space="preserve">
<path fill="#000000" opacity="1.000000" stroke="none" 
	d="
M499.000000,1025.000000 
	C332.666656,1025.000000 166.833328,1025.000000 1.000000,1025.000000 
	C1.000000,683.666687 1.000000,342.333344 1.000000,1.000000 
	C342.333344,1.000000 683.666687,1.000000 1025.000000,1.000000 
	C1025.000000,342.333344 1025.000000,683.666687 1025.000000,1025.000000 
	C849.833313,1025.000000 674.666687,1025.000000 499.000000,1025.000000 
M789.500000,549.000000 
	C809.325928,549.000000 829.151855,549.000488 848.977783,548.999084 
	C850.310547,548.998962 851.683105,549.191956 852.969971,548.945007 
	C869.724670,545.729858 884.410156,538.631531 895.266357,525.115967 
	C900.894348,518.109314 905.442688,510.419403 908.088989,501.606140 
	C911.558411,490.051758 911.649597,478.492249 910.053284,466.685669 
	C908.282471,453.589081 901.941650,442.708862 894.023193,432.627930 
	C887.632446,424.491974 879.037109,419.330048 869.372864,415.786896 
	C862.216003,413.163086 855.154114,410.818848 847.291077,410.905823 
	C823.636047,411.167450 799.976257,411.035370 776.318481,410.976318 
	C769.977966,410.960510 768.938171,409.685425 769.000061,402.957886 
	C769.050659,397.456726 769.592224,397.000885 776.141907,397.000641 
	C814.127808,396.999298 852.113770,397.000092 890.099670,396.999939 
	C896.985291,396.999908 896.995483,396.999390 896.997986,390.242249 
	C897.004089,373.415161 896.821960,356.584961 897.113892,339.762939 
	C897.196106,335.024780 895.724426,333.886688 891.169250,333.905060 
	C850.684937,334.068298 810.199585,333.971680 769.714783,334.051788 
	C766.315247,334.058533 762.819214,334.412903 759.534851,335.255859 
	C742.511292,339.624939 728.070496,348.516113 718.037781,362.888245 
	C713.025696,370.068207 709.210205,378.757172 707.393555,387.303528 
	C705.597473,395.753143 707.013123,404.882935 706.998230,413.714294 
	C706.973877,428.178009 713.690735,439.899628 722.850891,450.184753 
	C737.234619,466.335083 755.684021,473.966919 777.276733,473.993958 
	C799.101990,474.021271 820.927490,473.959229 842.752075,474.077972 
	C844.484863,474.087402 847.235229,474.728882 847.769165,475.883179 
	C850.504333,481.795929 847.530090,485.998779 841.048401,485.999115 
	C802.895874,486.001160 764.743347,486.000061 726.590820,486.000092 
	C724.817993,486.000092 723.045166,486.000122 721.000366,486.000122 
	C721.000366,505.474243 721.131042,524.438354 720.902771,543.398193 
	C720.849854,547.792542 722.129883,549.129822 726.523804,549.087891 
	C747.180908,548.890503 767.841003,549.000000 789.500000,549.000000 
M175.489777,334.000092 
	C144.394455,334.000092 113.299126,334.000092 82.302872,334.000092 
	C82.302872,405.994934 82.302872,477.394928 82.302872,548.999939 
	C118.086113,548.999939 153.566803,549.005554 189.047501,548.997131 
	C202.738953,548.993896 215.645309,545.282593 227.805527,539.484741 
	C241.046295,533.171631 251.968262,523.803101 261.331482,512.331909 
	C279.214355,490.422852 288.670380,465.982605 287.108917,437.366455 
	C286.111115,419.079865 281.612854,402.139435 272.108948,386.403107 
	C261.737579,369.230499 248.416473,355.516357 230.498444,345.957306 
	C213.451477,336.862915 195.407745,333.826691 175.489777,334.000092 
M415.500000,411.000092 
	C398.779449,411.000092 382.058929,411.000092 365.338379,411.000092 
	C368.009613,407.592285 370.919708,405.014038 374.193878,403.039398 
	C381.891571,398.396820 390.417847,396.946136 399.330566,396.972229 
	C425.824036,397.049835 452.318268,396.934082 478.811249,397.074524 
	C482.584991,397.094513 484.134033,396.289368 484.084961,392.137207 
	C483.876190,374.478851 483.840973,356.814545 484.092163,339.157379 
	C484.154785,334.755096 482.598022,333.871002 478.604248,333.930115 
	C447.528259,334.390137 416.440491,334.342865 385.377899,335.217834 
	C377.151642,335.449554 368.657837,337.397797 360.883331,340.208069 
	C342.503632,346.851898 326.560059,357.588409 315.108612,373.649780 
	C308.605408,382.770966 302.755249,392.594788 298.190338,402.808136 
	C290.357452,420.333130 288.731171,439.170959 292.274017,457.871521 
	C294.488281,469.559326 298.240387,481.262756 303.275818,492.036835 
	C310.727570,507.981049 322.793945,520.693298 336.884918,531.212891 
	C351.320251,541.989502 367.934692,548.229004 385.716431,548.748108 
	C416.682251,549.651978 447.693787,548.931519 478.685242,549.082153 
	C482.803375,549.102173 484.153717,548.008667 484.096802,543.741699 
	C483.863586,526.251526 483.867126,508.754669 484.090546,491.264221 
	C484.144470,487.042877 482.882874,485.885284 478.712463,485.912170 
	C451.886597,486.085266 425.058929,486.048340 398.232239,485.954987 
	C393.492950,485.938507 388.659363,485.813629 384.039642,484.888458 
	C376.783508,483.435303 370.391113,480.033020 364.776611,473.997192 
	C390.687653,473.997192 415.819061,473.915558 440.948822,474.081482 
	C444.912231,474.107635 446.122620,472.975647 446.082336,468.991180 
	C445.895355,450.497406 446.002472,432.000763 445.987946,413.505127 
	C445.987335,412.731598 445.823883,411.958191 445.715363,411.000061 
	C435.785004,411.000061 426.142517,411.000061 415.500000,411.000092 
M631.984253,372.379669 
	C621.548035,399.488098 611.111877,426.596497 600.334839,454.590118 
	C591.326782,431.307526 582.737122,408.887909 573.975769,386.535645 
	C567.776917,370.721008 561.256836,355.032135 555.090698,339.205078 
	C553.805420,335.906189 552.092468,334.753632 548.558777,334.911194 
	C541.739075,335.215210 534.896179,334.999908 528.062927,334.999908 
	C514.090088,334.999908 500.117279,334.999878 485.650665,334.999878 
	C486.188660,337.026581 486.443909,338.618988 487.025330,340.081787 
	C493.664093,356.784943 500.406006,373.447235 507.012909,390.162903 
	C513.749512,407.206726 520.338379,424.308838 527.042542,441.365540 
	C536.006592,464.171814 544.867859,487.020264 554.070801,509.730072 
	C559.191589,522.366516 563.988037,535.200989 575.455811,544.113770 
	C583.480591,550.350586 592.504578,554.475037 602.250977,553.714233 
	C618.306213,552.461121 631.102844,544.377014 638.537170,529.716309 
	C642.931885,521.049744 646.177368,511.783661 649.695801,502.692841 
	C657.843872,481.639984 665.874451,460.541443 673.892090,439.438354 
	C678.669312,426.864441 683.293701,414.232513 688.055054,401.652527 
	C694.235352,385.323517 700.504944,369.028412 706.690796,352.701538 
	C708.870483,346.948578 710.916931,341.145172 713.157043,335.000427 
	C691.254883,335.000427 669.930298,334.953308 648.607483,335.123352 
	C647.392517,335.133026 645.578979,336.674164 645.080200,337.918060 
	C640.601318,349.088165 636.354614,360.351410 631.984253,372.379669 
M267.071960,670.448364 
	C271.442871,664.037048 271.463135,656.556824 268.492920,650.388184 
	C263.775757,640.591553 251.974747,636.220642 241.036652,640.852173 
	C231.139618,645.042847 226.910126,658.360901 230.795563,667.621643 
	C236.145737,680.373596 256.114075,684.308899 267.071960,670.448364 
M433.108826,640.058960 
	C419.833557,635.508179 402.182922,645.909302 406.940735,664.207397 
	C409.546997,674.231018 415.995575,678.544250 427.733032,679.151184 
	C436.678009,679.613708 445.503845,671.381592 446.977875,662.616638 
	C448.615662,652.878174 442.986786,643.415039 433.108826,640.058960 
M298.641113,673.034485 
	C306.173828,669.592957 306.281067,653.105713 300.383698,646.737305 
	C292.957367,638.717834 283.677856,639.890991 274.355530,640.137756 
	C274.355530,652.919006 274.355530,665.424011 274.355530,678.001282 
	C278.866974,678.001282 283.030914,677.828308 287.173981,678.048279 
	C291.617310,678.284180 295.057373,676.533936 298.641113,673.034485 
M593.000610,657.501587 
	C593.000610,664.267578 593.000610,671.033508 593.000610,677.738953 
	C595.610046,677.738953 597.682739,677.738953 600.150879,677.738953 
	C600.150879,674.121155 600.150879,670.748474 600.150879,666.868835 
	C605.419312,671.686096 610.203308,676.060364 615.059204,680.500427 
	C616.788269,678.666809 618.003662,677.377869 619.688416,675.591248 
	C616.184570,672.566284 612.927795,669.754700 609.553406,666.841553 
	C610.917419,666.053589 611.580261,665.632385 612.275940,665.275024 
	C617.830872,662.420654 619.344299,657.587280 619.015259,651.772095 
	C618.723755,646.620361 616.364868,642.442688 611.437256,641.347107 
	C605.637024,640.057678 599.540588,640.100403 593.000610,639.514221 
	C593.000610,645.940918 593.000610,651.221741 593.000610,657.501587 
M741.498718,669.998779 
	C737.331970,660.650452 733.202942,651.284851 728.949890,641.975952 
	C728.429443,640.836853 726.987976,639.061279 726.418762,639.216309 
	C725.133606,639.566467 723.686890,640.719543 723.078674,641.933167 
	C719.057190,649.957520 715.173645,658.053345 711.386536,666.191650 
	C709.669922,669.880615 708.277039,673.720215 706.998779,676.851013 
	C711.899170,681.952759 713.905212,678.973450 715.664612,674.837097 
	C716.786499,672.199585 718.178162,669.676819 719.457275,667.085449 
	C723.868469,667.085449 728.179443,667.085449 732.446411,667.085449 
	C734.757202,671.531006 737.024048,675.892151 739.280884,680.233887 
	C745.078857,677.351868 745.078857,677.351868 741.498718,669.998779 
M383.195587,639.275513 
	C379.675629,641.136047 375.394073,642.267578 372.781586,644.996765 
	C365.571808,652.528687 364.927399,664.142395 371.509918,671.924316 
	C378.925690,680.691284 392.195007,681.954773 400.401825,675.014771 
	C401.466522,674.114380 401.886627,672.451843 402.605286,671.142273 
	C400.562866,670.492249 398.550262,669.525696 396.465118,669.329346 
	C395.463715,669.235107 394.389343,671.050720 393.236969,671.213074 
	C389.726532,671.707397 385.826874,672.859436 382.692322,671.850037 
	C377.109711,670.052307 374.387238,664.600708 374.276184,659.288574 
	C374.156677,653.571472 377.927765,649.177246 383.157898,646.291809 
	C387.653229,643.811707 391.148956,645.913269 394.729248,648.222595 
	C395.399536,648.654968 396.178955,649.372498 396.829346,649.295410 
	C398.714691,649.071899 400.560089,648.511047 402.421143,648.082520 
	C401.820374,646.462402 401.691620,644.259277 400.536377,643.324036 
	C395.763916,639.460083 390.027466,638.557739 383.195587,639.275513 
M209.070038,645.409790 
	C212.446014,646.505798 216.149841,647.061523 219.103302,648.853821 
	C221.910263,650.557190 224.099228,650.437500 225.241653,647.937134 
	C225.790710,646.735596 224.473480,643.680603 223.121689,642.767822 
	C211.136200,634.674988 194.568665,639.603882 191.309341,655.107971 
	C190.000366,661.334656 192.591766,672.653625 200.428436,677.018127 
	C206.478790,680.387695 219.408813,679.759888 224.309265,675.034424 
	C225.176590,674.198059 225.747818,671.630005 225.201736,671.057190 
	C224.152283,669.956543 222.240448,669.467041 220.612762,669.230591 
	C219.943024,669.133301 219.143143,670.446472 218.299911,670.944519 
	C213.217407,673.946472 207.521820,674.428772 203.389771,670.452881 
	C200.316681,667.495911 197.390060,662.421570 197.610168,658.469177 
	C197.938080,652.581177 201.506729,647.220642 209.070038,645.409790 
M668.944214,665.989685 
	C675.017944,664.138184 677.957642,660.215881 678.000122,653.907227 
	C678.050903,646.364807 675.907898,642.440979 669.298157,641.007446 
	C663.821594,639.819641 658.036072,640.056824 652.331055,639.658813 
	C652.331055,652.941528 652.331055,665.440613 652.331055,677.666382 
	C654.746399,677.666382 656.813416,677.666382 659.242798,677.666382 
	C659.242798,673.597351 659.242798,669.861816 659.242798,665.989990 
	C662.436646,665.989990 665.246887,665.989990 668.944214,665.989685 
M694.384888,653.999390 
	C692.629333,653.999390 690.873718,653.999390 689.325684,653.999390 
	C689.325684,650.944824 689.325684,648.539062 689.325684,645.771057 
	C694.072815,645.771057 698.495361,645.771057 703.076660,645.771057 
	C702.960754,643.633789 702.866272,641.891479 702.763672,640.000000 
	C698.213928,640.000000 694.064575,640.001343 689.915222,639.999695 
	C681.018127,639.996216 682.021851,639.236755 682.004028,648.125671 
	C681.984131,658.041382 681.999390,667.957153 681.999390,677.722778 
	C690.081055,677.722778 697.507080,677.722778 704.776917,677.722778 
	C705.868469,673.141968 703.942688,671.695557 699.807251,671.953186 
	C696.238403,672.175537 692.644714,671.999390 689.351379,671.999390 
	C689.351379,667.881653 689.351379,664.474548 689.351379,660.709900 
	C693.118225,660.709900 696.532410,660.709900 699.885681,660.709900 
	C700.173035,656.920288 700.760498,653.252197 694.384888,653.999390 
M643.996277,641.585510 
	C643.695190,641.071289 643.400269,640.112854 643.091980,640.108521 
	C636.841370,640.020996 630.589233,640.042908 624.362183,640.042908 
	C624.362183,653.188293 624.362183,665.562622 624.362183,677.827148 
	C631.687988,677.827148 638.650940,677.827148 645.673584,677.827148 
	C645.673584,675.927063 645.673584,674.220032 645.673584,671.971802 
	C640.641357,671.971802 635.909180,671.971802 631.288635,671.971802 
	C631.288635,668.005981 631.288635,664.596558 631.288635,660.821350 
	C634.657532,660.821350 637.745789,660.821350 640.719849,660.821350 
	C640.719849,658.360840 640.719849,656.288757 640.719849,653.834412 
	C637.358337,653.834412 634.273743,653.834412 631.281616,653.834412 
	C631.281616,651.029785 631.281616,648.624084 631.281616,646.000305 
	C634.701782,646.000305 637.868164,645.757202 640.979004,646.068909 
	C644.068359,646.378540 644.200989,644.729675 643.996277,641.585510 
M547.351807,645.999878 
	C548.469971,645.999878 549.588135,645.999878 550.785034,645.999878 
	C550.785034,643.811157 550.785034,642.075439 550.785034,640.214233 
	C544.166443,640.214233 537.764221,640.214233 531.192749,640.214233 
	C531.192749,652.817200 531.192749,665.205566 531.192749,677.797180 
	C538.458618,677.797180 545.532349,677.797180 552.674927,677.797180 
	C552.674927,675.928650 552.674927,674.223145 552.674927,671.982300 
	C547.649536,671.982300 542.920959,671.982300 538.274780,671.982300 
	C538.274780,668.027405 538.274780,664.621460 538.274780,660.849609 
	C541.628235,660.849609 544.711853,660.849609 547.739258,660.849609 
	C547.739258,658.394958 547.739258,656.324951 547.739258,653.875488 
	C544.402832,653.875488 541.318787,653.875488 538.252441,653.875488 
	C538.252441,651.078552 538.252441,648.678345 538.252441,645.999878 
	C541.134888,645.999878 543.768372,645.999878 547.351807,645.999878 
M502.999756,674.348389 
	C503.184540,675.954224 502.126709,678.129517 505.360809,678.047363 
	C511.811401,677.883484 518.269104,677.998840 524.775635,677.998840 
	C524.775635,675.800537 524.775635,674.062134 524.775635,671.929932 
	C519.809448,671.929932 515.052612,671.929932 510.234741,671.929932 
	C510.234741,668.120239 510.234741,664.712769 510.234741,660.921997 
	C513.546448,660.921997 516.630371,660.921997 519.769043,660.921997 
	C519.769043,658.455444 519.769043,656.382874 519.769043,653.926025 
	C516.465088,653.926025 513.370422,653.926025 510.232971,653.926025 
	C510.232971,651.122803 510.232971,648.716858 510.232971,645.928223 
	C514.546326,645.928223 518.643982,645.928223 522.773193,645.928223 
	C522.773193,643.796875 522.773193,642.058899 522.773193,640.242310 
	C516.136169,640.242310 509.728027,640.242310 502.999756,640.242310 
	C502.999756,651.446899 502.999756,662.412170 502.999756,674.348389 
M315.000519,650.461304 
	C315.077972,649.035034 315.155396,647.608704 315.252167,645.826172 
	C319.672211,645.826172 323.759918,645.826172 327.720093,645.826172 
	C327.720093,643.703613 327.720093,641.967102 327.720093,640.273132 
	C321.038300,640.273132 314.639557,640.273132 308.252075,640.273132 
	C308.252075,652.937378 308.252075,665.326660 308.252075,677.779785 
	C315.587524,677.779785 322.668060,677.779785 330.045898,677.779785 
	C329.933685,675.819519 329.835236,674.100037 329.707458,671.867981 
	C324.518616,671.867981 319.800262,671.867981 315.333771,671.867981 
	C315.333771,667.910278 315.333771,664.502380 315.333771,660.733276 
	C318.751373,660.733276 321.836151,660.733276 324.676483,660.733276 
	C324.676483,658.279785 324.676483,656.208740 324.676483,653.998230 
	C322.036591,653.998230 319.681274,654.240662 317.422272,653.880005 
	C316.507019,653.733948 315.801697,652.272827 315.000519,650.461304 
M763.000122,652.575073 
	C763.000122,650.468323 763.000122,648.361572 763.000122,645.868652 
	C766.929749,645.868652 770.351685,645.868652 773.740601,645.868652 
	C773.740601,643.734192 773.740601,641.999573 773.740601,640.000916 
	C764.515259,640.000916 755.543396,639.889893 746.580994,640.131348 
	C745.364075,640.164185 744.194824,641.962219 743.003540,642.942871 
	C744.157104,643.961670 745.211548,645.679443 746.483948,645.859924 
	C749.527222,646.291565 752.673157,645.999329 756.142822,645.999329 
	C756.142822,656.953247 756.142822,667.367371 756.142822,677.732910 
	C758.616516,677.732910 760.684875,677.732910 763.000183,677.732910 
	C763.000183,669.499329 763.000183,661.530212 763.000122,652.575073 
M477.000702,655.504150 
	C477.000702,662.941528 477.000702,670.378967 477.000702,677.733765 
	C479.272186,677.733765 481.009735,677.733765 483.133606,677.733765 
	C483.133606,672.063232 483.133606,666.647766 483.133606,660.872070 
	C486.936371,660.872070 490.357452,660.872070 493.748932,660.872070 
	C493.748932,658.412842 493.748932,656.342468 493.748932,653.894409 
	C490.089874,653.894409 486.669586,653.894409 483.245117,653.894409 
	C483.245117,651.094360 483.245117,648.691772 483.245117,645.915771 
	C488.567627,645.915771 493.657532,645.915771 498.766602,645.915771 
	C498.766602,643.786377 498.766602,642.050659 498.766602,640.311035 
	C491.475098,640.311035 484.417023,640.311035 477.000671,640.311035 
	C477.000671,645.245544 477.000671,649.875854 477.000702,655.504150 
M450.999756,662.496582 
	C450.999756,667.607300 450.999756,672.718018 450.999756,677.723633 
	C453.295258,677.723633 455.036346,677.723633 457.155853,677.723633 
	C457.155853,672.039185 457.155853,666.621338 457.155853,660.858276 
	C460.985474,660.858276 464.416565,660.858276 467.751770,660.858276 
	C469.839508,649.785339 460.646667,655.942993 457.285645,653.507141 
	C457.285645,651.019897 457.285645,648.616394 457.285645,645.839966 
	C462.657227,645.839966 467.748230,645.839966 472.718567,645.839966 
	C472.718567,643.699219 472.718567,641.963989 472.718567,640.286621 
	C465.364288,640.286621 458.291809,640.286621 450.999756,640.286621 
	C450.999756,647.546997 450.999756,654.522644 450.999756,662.496582 
M558.047485,676.489685 
	C559.370178,680.164612 562.532410,679.138306 565.019592,678.781677 
	C565.846924,678.663086 566.877808,676.282104 566.849487,674.956055 
	C566.823364,673.732544 565.302979,671.429077 564.786499,671.522034 
	C562.657104,671.905334 560.624878,672.949341 558.641846,673.923279 
	C558.239441,674.120789 558.204895,675.067383 558.047485,676.489685 
M813.655518,671.002380 
	C810.101196,671.430359 808.332458,674.467407 809.738892,676.706848 
	C810.919189,678.586182 814.763794,678.792297 818.103027,679.978821 
	C817.685608,675.531860 819.608521,671.701843 813.655518,671.002380 
M340.379120,679.004395 
	C343.741272,679.341492 344.710602,677.129272 343.829895,674.707031 
	C343.267975,673.161560 340.735931,670.989136 339.665161,671.273621 
	C337.869293,671.750671 335.599945,673.763794 335.230255,675.493958 
	C334.709015,677.933472 336.682159,679.506836 340.379120,679.004395 
M828.549622,671.000610 
	C827.429321,671.595520 825.837524,671.921936 825.307373,672.852905 
	C824.635010,674.033508 824.363342,675.866760 824.798584,677.110840 
	C825.110840,678.003357 826.929688,678.983154 827.962036,678.870972 
	C829.681885,678.684021 832.297913,678.062012 832.780029,676.896484 
	C833.940125,674.092468 832.339233,671.930908 828.549622,671.000610 
M799.604553,671.001343 
	C796.538269,671.603699 794.343872,673.394836 795.288818,676.554688 
	C796.471985,680.510864 799.786987,678.870605 802.755432,678.658936 
	C802.831177,675.630859 804.385071,672.565613 799.604553,671.001343 
z"/>
<path fill="#FFFFFF" opacity="1.000000" stroke="none" 
	d="
M789.000000,549.000000 
	C767.841003,549.000000 747.180908,548.890503 726.523804,549.087891 
	C722.129883,549.129822 720.849854,547.792542 720.902771,543.398193 
	C721.131042,524.438354 721.000366,505.474243 721.000366,486.000122 
	C723.045166,486.000122 724.817993,486.000092 726.590820,486.000092 
	C764.743347,486.000061 802.895874,486.001160 841.048401,485.999115 
	C847.530090,485.998779 850.504333,481.795929 847.769165,475.883179 
	C847.235229,474.728882 844.484863,474.087402 842.752075,474.077972 
	C820.927490,473.959229 799.101990,474.021271 777.276733,473.993958 
	C755.684021,473.966919 737.234619,466.335083 722.850891,450.184753 
	C713.690735,439.899628 706.973877,428.178009 706.998230,413.714294 
	C707.013123,404.882935 705.597473,395.753143 707.393555,387.303528 
	C709.210205,378.757172 713.025696,370.068207 718.037781,362.888245 
	C728.070496,348.516113 742.511292,339.624939 759.534851,335.255859 
	C762.819214,334.412903 766.315247,334.058533 769.714783,334.051788 
	C810.199585,333.971680 850.684937,334.068298 891.169250,333.905060 
	C895.724426,333.886688 897.196106,335.024780 897.113892,339.762939 
	C896.821960,356.584961 897.004089,373.415161 896.997986,390.242249 
	C896.995483,396.999390 896.985291,396.999908 890.099670,396.999939 
	C852.113770,397.000092 814.127808,396.999298 776.141907,397.000641 
	C769.592224,397.000885 769.050659,397.456726 769.000061,402.957886 
	C768.938171,409.685425 769.977966,410.960510 776.318481,410.976318 
	C799.976257,411.035370 823.636047,411.167450 847.291077,410.905823 
	C855.154114,410.818848 862.216003,413.163086 869.372864,415.786896 
	C879.037109,419.330048 887.632446,424.491974 894.023193,432.627930 
	C901.941650,442.708862 908.282471,453.589081 910.053284,466.685669 
	C911.649597,478.492249 911.558411,490.051758 908.088989,501.606140 
	C905.442688,510.419403 900.894348,518.109314 895.266357,525.115967 
	C884.410156,538.631531 869.724670,545.729858 852.969971,548.945007 
	C851.683105,549.191956 850.310547,548.998962 848.977783,548.999084 
	C829.151855,549.000488 809.325928,549.000000 789.000000,549.000000 
z"/>
<path fill="#FFFFFF" opacity="1.000000" stroke="none" 
	d="
M175.987320,334.000092 
	C195.407745,333.826691 213.451477,336.862915 230.498444,345.957306 
	C248.416473,355.516357 261.737579,369.230499 272.108948,386.403107 
	C281.612854,402.139435 286.111115,419.079865 287.108917,437.366455 
	C288.670380,465.982605 279.214355,490.422852 261.331482,512.331909 
	C251.968262,523.803101 241.046295,533.171631 227.805527,539.484741 
	C215.645309,545.282593 202.738953,548.993896 189.047501,548.997131 
	C153.566803,549.005554 118.086113,548.999939 82.302872,548.999939 
	C82.302872,477.394928 82.302872,405.994934 82.302872,334.000092 
	C113.299126,334.000092 144.394455,334.000092 175.987320,334.000092 
M222.972046,455.192322 
	C226.956787,441.325623 225.001541,427.967346 217.387756,416.100433 
	C210.564194,405.465210 200.777969,398.110718 187.234848,398.002991 
	C173.233002,397.891632 159.229584,397.978210 145.278625,397.978210 
	C145.278625,426.971222 145.278625,456.368469 145.278625,485.999695 
	C160.192612,485.999695 174.829147,486.005493 189.465622,485.984009 
	C190.275223,485.982819 191.097443,485.810364 191.892014,485.624573 
	C208.040588,481.848389 217.464981,471.113312 222.972046,455.192322 
z"/>
<path fill="#FFFFFF" opacity="1.000000" stroke="none" 
	d="
M416.000000,411.000061 
	C426.142517,411.000061 435.785004,411.000061 445.715363,411.000061 
	C445.823883,411.958191 445.987335,412.731598 445.987946,413.505127 
	C446.002472,432.000763 445.895355,450.497406 446.082336,468.991180 
	C446.122620,472.975647 444.912231,474.107635 440.948822,474.081482 
	C415.819061,473.915558 390.687653,473.997192 364.776611,473.997192 
	C370.391113,480.033020 376.783508,483.435303 384.039642,484.888458 
	C388.659363,485.813629 393.492950,485.938507 398.232239,485.954987 
	C425.058929,486.048340 451.886597,486.085266 478.712463,485.912170 
	C482.882874,485.885284 484.144470,487.042877 484.090546,491.264221 
	C483.867126,508.754669 483.863586,526.251526 484.096802,543.741699 
	C484.153717,548.008667 482.803375,549.102173 478.685242,549.082153 
	C447.693787,548.931519 416.682251,549.651978 385.716431,548.748108 
	C367.934692,548.229004 351.320251,541.989502 336.884918,531.212891 
	C322.793945,520.693298 310.727570,507.981049 303.275818,492.036835 
	C298.240387,481.262756 294.488281,469.559326 292.274017,457.871521 
	C288.731171,439.170959 290.357452,420.333130 298.190338,402.808136 
	C302.755249,392.594788 308.605408,382.770966 315.108612,373.649780 
	C326.560059,357.588409 342.503632,346.851898 360.883331,340.208069 
	C368.657837,337.397797 377.151642,335.449554 385.377899,335.217834 
	C416.440491,334.342865 447.528259,334.390137 478.604248,333.930115 
	C482.598022,333.871002 484.154785,334.755096 484.092163,339.157379 
	C483.840973,356.814545 483.876190,374.478851 484.084961,392.137207 
	C484.134033,396.289368 482.584991,397.094513 478.811249,397.074524 
	C452.318268,396.934082 425.824036,397.049835 399.330566,396.972229 
	C390.417847,396.946136 381.891571,398.396820 374.193878,403.039398 
	C370.919708,405.014038 368.009613,407.592285 365.338379,411.000092 
	C382.058929,411.000092 398.779449,411.000092 416.000000,411.000061 
z"/>
<path fill="#FFFFFF" opacity="1.000000" stroke="none" 
	d="
M632.011963,371.983459 
	C636.354614,360.351410 640.601318,349.088165 645.080200,337.918060 
	C645.578979,336.674164 647.392517,335.133026 648.607483,335.123352 
	C669.930298,334.953308 691.254883,335.000427 713.157043,335.000427 
	C710.916931,341.145172 708.870483,346.948578 706.690796,352.701538 
	C700.504944,369.028412 694.235352,385.323517 688.055054,401.652527 
	C683.293701,414.232513 678.669312,426.864441 673.892090,439.438354 
	C665.874451,460.541443 657.843872,481.639984 649.695801,502.692841 
	C646.177368,511.783661 642.931885,521.049744 638.537170,529.716309 
	C631.102844,544.377014 618.306213,552.461121 602.250977,553.714233 
	C592.504578,554.475037 583.480591,550.350586 575.455811,544.113770 
	C563.988037,535.200989 559.191589,522.366516 554.070801,509.730072 
	C544.867859,487.020264 536.006592,464.171814 527.042542,441.365540 
	C520.338379,424.308838 513.749512,407.206726 507.012909,390.162903 
	C500.406006,373.447235 493.664093,356.784943 487.025330,340.081787 
	C486.443909,338.618988 486.188660,337.026581 485.650665,334.999878 
	C500.117279,334.999878 514.090088,334.999908 528.062927,334.999908 
	C534.896179,334.999908 541.739075,335.215210 548.558777,334.911194 
	C552.092468,334.753632 553.805420,335.906189 555.090698,339.205078 
	C561.256836,355.032135 567.776917,370.721008 573.975769,386.535645 
	C582.737122,408.887909 591.326782,431.307526 600.334839,454.590118 
	C611.111877,426.596497 621.548035,399.488098 632.011963,371.983459 
z"/>
<path fill="#FEFEFE" opacity="1.000000" stroke="none" 
	d="
M267.026215,670.833496 
	C256.114075,684.308899 236.145737,680.373596 230.795563,667.621643 
	C226.910126,658.360901 231.139618,645.042847 241.036652,640.852173 
	C251.974747,636.220642 263.775757,640.591553 268.492920,650.388184 
	C271.463135,656.556824 271.442871,664.037048 267.026215,670.833496 
M242.069534,648.396667 
	C241.251846,649.220703 240.375351,649.994934 239.626633,650.877441 
	C236.382141,654.701782 235.341995,658.965393 237.296112,663.726685 
	C239.395386,668.841736 242.814011,672.489868 248.622299,672.967468 
	C254.437668,673.445618 259.861145,670.318298 261.752777,665.684448 
	C264.360901,659.295471 262.977509,652.995422 257.965393,648.436523 
	C253.688171,644.546143 248.932968,644.380249 242.069534,648.396667 
z"/>
<path fill="#FEFEFE" opacity="1.000000" stroke="none" 
	d="
M433.483459,640.236694 
	C442.986786,643.415039 448.615662,652.878174 446.977875,662.616638 
	C445.503845,671.381592 436.678009,679.613708 427.733032,679.151184 
	C415.995575,678.544250 409.546997,674.231018 406.940735,664.207397 
	C402.182922,645.909302 419.833557,635.508179 433.483459,640.236694 
M432.380066,671.113098 
	C439.976410,666.562378 441.963715,660.253052 438.026154,653.188171 
	C434.038239,646.032959 427.163269,643.574890 420.496643,646.920593 
	C414.372070,649.994202 411.763855,658.607361 414.657898,665.231323 
	C418.182037,673.297607 425.762573,674.635620 432.380066,671.113098 
z"/>
<path fill="#FEFEFE" opacity="1.000000" stroke="none" 
	d="
M298.333313,673.253052 
	C295.057373,676.533936 291.617310,678.284180 287.173981,678.048279 
	C283.030914,677.828308 278.866974,678.001282 274.355530,678.001282 
	C274.355530,665.424011 274.355530,652.919006 274.355530,640.137756 
	C283.677856,639.890991 292.957367,638.717834 300.383698,646.737305 
	C306.281067,653.105713 306.173828,669.592957 298.333313,673.253052 
M296.790222,663.730408 
	C299.292938,651.528687 289.824310,644.247009 281.198364,646.517822 
	C281.198364,654.883545 281.198364,663.265686 281.198364,671.624878 
	C289.950226,672.557068 292.421875,671.327759 296.790222,663.730408 
z"/>
<path fill="#FEFEFE" opacity="1.000000" stroke="none" 
	d="
M593.000610,657.002075 
	C593.000610,651.221741 593.000610,645.940918 593.000610,639.514221 
	C599.540588,640.100403 605.637024,640.057678 611.437256,641.347107 
	C616.364868,642.442688 618.723755,646.620361 619.015259,651.772095 
	C619.344299,657.587280 617.830872,662.420654 612.275940,665.275024 
	C611.580261,665.632385 610.917419,666.053589 609.553406,666.841553 
	C612.927795,669.754700 616.184570,672.566284 619.688416,675.591248 
	C618.003662,677.377869 616.788269,678.666809 615.059204,680.500427 
	C610.203308,676.060364 605.419312,671.686096 600.150879,666.868835 
	C600.150879,670.748474 600.150879,674.121155 600.150879,677.738953 
	C597.682739,677.738953 595.610046,677.738953 593.000610,677.738953 
	C593.000610,671.033508 593.000610,664.267578 593.000610,657.002075 
M600.004333,647.756653 
	C600.004333,651.819763 600.004333,655.882812 600.004333,659.914429 
	C610.934875,660.151062 613.758301,657.385010 611.010010,649.817810 
	C609.617981,645.985046 606.104309,645.023071 600.004333,647.756653 
z"/>
<path fill="#FEFEFE" opacity="1.000000" stroke="none" 
	d="
M741.732544,670.318481 
	C745.078857,677.351868 745.078857,677.351868 739.280884,680.233887 
	C737.024048,675.892151 734.757202,671.531006 732.446411,667.085449 
	C728.179443,667.085449 723.868469,667.085449 719.457275,667.085449 
	C718.178162,669.676819 716.786499,672.199585 715.664612,674.837097 
	C713.905212,678.973450 711.899170,681.952759 706.998779,676.851013 
	C708.277039,673.720215 709.669922,669.880615 711.386536,666.191650 
	C715.173645,658.053345 719.057190,649.957520 723.078674,641.933167 
	C723.686890,640.719543 725.133606,639.566467 726.418762,639.216309 
	C726.987976,639.061279 728.429443,640.836853 728.949890,641.975952 
	C733.202942,651.284851 737.331970,660.650452 741.732544,670.318481 
z"/>
<path fill="#FFFFFF" opacity="1.000000" stroke="none" 
	d="
M383.609955,639.146729 
	C390.027466,638.557739 395.763916,639.460083 400.536377,643.324036 
	C401.691620,644.259277 401.820374,646.462402 402.421143,648.082520 
	C400.560089,648.511047 398.714691,649.071899 396.829346,649.295410 
	C396.178955,649.372498 395.399536,648.654968 394.729248,648.222595 
	C391.148956,645.913269 387.653229,643.811707 383.157898,646.291809 
	C377.927765,649.177246 374.156677,653.571472 374.276184,659.288574 
	C374.387238,664.600708 377.109711,670.052307 382.692322,671.850037 
	C385.826874,672.859436 389.726532,671.707397 393.236969,671.213074 
	C394.389343,671.050720 395.463715,669.235107 396.465118,669.329346 
	C398.550262,669.525696 400.562866,670.492249 402.605286,671.142334 
	C401.886627,672.451843 401.466522,674.114380 400.401825,675.014771 
	C392.195007,681.954773 378.925690,680.691284 371.509918,671.924316 
	C364.927399,664.142395 365.571808,652.528687 372.781586,644.996765 
	C375.394073,642.267578 379.675629,641.136047 383.609955,639.146729 
z"/>
<path fill="#FFFFFF" opacity="1.000000" stroke="none" 
	d="
M208.772034,645.680420 
	C201.506729,647.220642 197.938080,652.581177 197.610168,658.469177 
	C197.390060,662.421570 200.316681,667.495911 203.389771,670.452881 
	C207.521820,674.428772 213.217407,673.946472 218.299911,670.944519 
	C219.143143,670.446472 219.943024,669.133301 220.612762,669.230591 
	C222.240448,669.467041 224.152283,669.956543 225.201736,671.057190 
	C225.747818,671.630005 225.176590,674.198059 224.309265,675.034424 
	C219.408813,679.759888 206.478790,680.387695 200.428436,677.018127 
	C192.591766,672.653625 190.000366,661.334656 191.309341,655.107971 
	C194.568665,639.603882 211.136200,634.674988 223.121689,642.767822 
	C224.473480,643.680603 225.790710,646.735596 225.241653,647.937134 
	C224.099228,650.437500 221.910263,650.557190 219.103302,648.853821 
	C216.149841,647.061523 212.446014,646.505798 208.772034,645.680420 
z"/>
<path fill="#FFFFFF" opacity="1.000000" stroke="none" 
	d="
M668.500671,665.989868 
	C665.246887,665.989990 662.436646,665.989990 659.242798,665.989990 
	C659.242798,669.861816 659.242798,673.597351 659.242798,677.666382 
	C656.813416,677.666382 654.746399,677.666382 652.331055,677.666382 
	C652.331055,665.440613 652.331055,652.941528 652.331055,639.658813 
	C658.036072,640.056824 663.821594,639.819641 669.298157,641.007446 
	C675.907898,642.440979 678.050903,646.364807 678.000122,653.907227 
	C677.957642,660.215881 675.017944,664.138184 668.500671,665.989868 
M669.969604,648.471741 
	C666.569031,647.380859 663.168518,646.289978 659.000000,644.952698 
	C659.000000,648.411194 659.000000,650.528564 659.000000,652.645996 
	C659.000000,654.733704 659.000000,656.821411 659.000000,658.879883 
	C671.095337,659.250610 673.965515,656.657471 669.969604,648.471741 
z"/>
<path fill="#FFFFFF" opacity="1.000000" stroke="none" 
	d="
M694.843201,653.999390 
	C700.760498,653.252197 700.173035,656.920288 699.885681,660.709900 
	C696.532410,660.709900 693.118225,660.709900 689.351379,660.709900 
	C689.351379,664.474548 689.351379,667.881653 689.351379,671.999390 
	C692.644714,671.999390 696.238403,672.175537 699.807251,671.953186 
	C703.942688,671.695557 705.868469,673.141968 704.776917,677.722778 
	C697.507080,677.722778 690.081055,677.722778 681.999390,677.722778 
	C681.999390,667.957153 681.984131,658.041382 682.004028,648.125671 
	C682.021851,639.236755 681.018127,639.996216 689.915222,639.999695 
	C694.064575,640.001343 698.213928,640.000000 702.763672,640.000000 
	C702.866272,641.891479 702.960754,643.633789 703.076660,645.771057 
	C698.495361,645.771057 694.072815,645.771057 689.325684,645.771057 
	C689.325684,648.539062 689.325684,650.944824 689.325684,653.999390 
	C690.873718,653.999390 692.629333,653.999390 694.843201,653.999390 
z"/>
<path fill="#FEFEFE" opacity="1.000000" stroke="none" 
	d="
M643.998413,642.055603 
	C644.200989,644.729675 644.068359,646.378540 640.979004,646.068909 
	C637.868164,645.757202 634.701782,646.000305 631.281616,646.000305 
	C631.281616,648.624084 631.281616,651.029785 631.281616,653.834412 
	C634.273743,653.834412 637.358337,653.834412 640.719849,653.834412 
	C640.719849,656.288757 640.719849,658.360840 640.719849,660.821350 
	C637.745789,660.821350 634.657532,660.821350 631.288635,660.821350 
	C631.288635,664.596558 631.288635,668.005981 631.288635,671.971802 
	C635.909180,671.971802 640.641357,671.971802 645.673584,671.971802 
	C645.673584,674.220032 645.673584,675.927063 645.673584,677.827148 
	C638.650940,677.827148 631.687988,677.827148 624.362183,677.827148 
	C624.362183,665.562622 624.362183,653.188293 624.362183,640.042908 
	C630.589233,640.042908 636.841370,640.020996 643.091980,640.108521 
	C643.400269,640.112854 643.695190,641.071289 643.998413,642.055603 
z"/>
<path fill="#FFFFFF" opacity="1.000000" stroke="none" 
	d="
M546.876831,645.999878 
	C543.768372,645.999878 541.134888,645.999878 538.252441,645.999878 
	C538.252441,648.678345 538.252441,651.078552 538.252441,653.875488 
	C541.318787,653.875488 544.402832,653.875488 547.739258,653.875488 
	C547.739258,656.324951 547.739258,658.394958 547.739258,660.849609 
	C544.711853,660.849609 541.628235,660.849609 538.274780,660.849609 
	C538.274780,664.621460 538.274780,668.027405 538.274780,671.982300 
	C542.920959,671.982300 547.649536,671.982300 552.674927,671.982300 
	C552.674927,674.223145 552.674927,675.928650 552.674927,677.797180 
	C545.532349,677.797180 538.458618,677.797180 531.192749,677.797180 
	C531.192749,665.205566 531.192749,652.817200 531.192749,640.214233 
	C537.764221,640.214233 544.166443,640.214233 550.785034,640.214233 
	C550.785034,642.075439 550.785034,643.811157 550.785034,645.999878 
	C549.588135,645.999878 548.469971,645.999878 546.876831,645.999878 
z"/>
<path fill="#FFFFFF" opacity="1.000000" stroke="none" 
	d="
M502.999756,673.862915 
	C502.999756,662.412170 502.999756,651.446899 502.999756,640.242310 
	C509.728027,640.242310 516.136169,640.242310 522.773193,640.242310 
	C522.773193,642.058899 522.773193,643.796875 522.773193,645.928223 
	C518.643982,645.928223 514.546326,645.928223 510.232971,645.928223 
	C510.232971,648.716858 510.232971,651.122803 510.232971,653.926025 
	C513.370422,653.926025 516.465088,653.926025 519.769043,653.926025 
	C519.769043,656.382874 519.769043,658.455444 519.769043,660.921997 
	C516.630371,660.921997 513.546448,660.921997 510.234741,660.921997 
	C510.234741,664.712769 510.234741,668.120239 510.234741,671.929932 
	C515.052612,671.929932 519.809448,671.929932 524.775635,671.929932 
	C524.775635,674.062134 524.775635,675.800537 524.775635,677.998840 
	C518.269104,677.998840 511.811401,677.883484 505.360809,678.047363 
	C502.126709,678.129517 503.184540,675.954224 502.999756,673.862915 
z"/>
<path fill="#FFFFFF" opacity="1.000000" stroke="none" 
	d="
M315.000671,650.935730 
	C315.801697,652.272827 316.507019,653.733948 317.422272,653.880005 
	C319.681274,654.240662 322.036591,653.998230 324.676483,653.998230 
	C324.676483,656.208740 324.676483,658.279785 324.676483,660.733276 
	C321.836151,660.733276 318.751373,660.733276 315.333771,660.733276 
	C315.333771,664.502380 315.333771,667.910278 315.333771,671.867981 
	C319.800262,671.867981 324.518616,671.867981 329.707458,671.867981 
	C329.835236,674.100037 329.933685,675.819519 330.045898,677.779785 
	C322.668060,677.779785 315.587524,677.779785 308.252075,677.779785 
	C308.252075,665.326660 308.252075,652.937378 308.252075,640.273132 
	C314.639557,640.273132 321.038300,640.273132 327.720093,640.273132 
	C327.720093,641.967102 327.720093,643.703613 327.720093,645.826172 
	C323.759918,645.826172 319.672211,645.826172 315.252167,645.826172 
	C315.155396,647.608704 315.077972,649.035034 315.000671,650.935730 
z"/>
<path fill="#FFFFFF" opacity="1.000000" stroke="none" 
	d="
M763.000122,653.068115 
	C763.000183,661.530212 763.000183,669.499329 763.000183,677.732910 
	C760.684875,677.732910 758.616516,677.732910 756.142822,677.732910 
	C756.142822,667.367371 756.142822,656.953247 756.142822,645.999329 
	C752.673157,645.999329 749.527222,646.291565 746.483948,645.859924 
	C745.211548,645.679443 744.157104,643.961670 743.003540,642.942871 
	C744.194824,641.962219 745.364075,640.164185 746.580994,640.131348 
	C755.543396,639.889893 764.515259,640.000916 773.740601,640.000916 
	C773.740601,641.999573 773.740601,643.734192 773.740601,645.868652 
	C770.351685,645.868652 766.929749,645.868652 763.000122,645.868652 
	C763.000122,648.361572 763.000122,650.468323 763.000122,653.068115 
z"/>
<path fill="#FFFFFF" opacity="1.000000" stroke="none" 
	d="
M477.000671,655.005127 
	C477.000671,649.875854 477.000671,645.245544 477.000671,640.311035 
	C484.417023,640.311035 491.475098,640.311035 498.766602,640.311035 
	C498.766602,642.050659 498.766602,643.786377 498.766602,645.915771 
	C493.657532,645.915771 488.567627,645.915771 483.245117,645.915771 
	C483.245117,648.691772 483.245117,651.094360 483.245117,653.894409 
	C486.669586,653.894409 490.089874,653.894409 493.748932,653.894409 
	C493.748932,656.342468 493.748932,658.412842 493.748932,660.872070 
	C490.357452,660.872070 486.936371,660.872070 483.133606,660.872070 
	C483.133606,666.647766 483.133606,672.063232 483.133606,677.733765 
	C481.009735,677.733765 479.272186,677.733765 477.000702,677.733765 
	C477.000702,670.378967 477.000702,662.941528 477.000671,655.005127 
z"/>
<path fill="#FFFFFF" opacity="1.000000" stroke="none" 
	d="
M450.999756,661.997437 
	C450.999756,654.522644 450.999756,647.546997 450.999756,640.286621 
	C458.291809,640.286621 465.364288,640.286621 472.718567,640.286621 
	C472.718567,641.963989 472.718567,643.699219 472.718567,645.839966 
	C467.748230,645.839966 462.657227,645.839966 457.285645,645.839966 
	C457.285645,648.616394 457.285645,651.019897 457.285645,653.507141 
	C460.646667,655.942993 469.839508,649.785339 467.751770,660.858276 
	C464.416565,660.858276 460.985474,660.858276 457.155853,660.858276 
	C457.155853,666.621338 457.155853,672.039185 457.155853,677.723633 
	C455.036346,677.723633 453.295258,677.723633 450.999756,677.723633 
	C450.999756,672.718018 450.999756,667.607300 450.999756,661.997437 
z"/>
<path fill="#FCFCFC" opacity="1.000000" stroke="none" 
	d="
M558.024109,676.079163 
	C558.204895,675.067383 558.239441,674.120789 558.641846,673.923279 
	C560.624878,672.949341 562.657104,671.905334 564.786499,671.522034 
	C565.302979,671.429077 566.823364,673.732544 566.849487,674.956055 
	C566.877808,676.282104 565.846924,678.663086 565.019592,678.781677 
	C562.532410,679.138306 559.370178,680.164612 558.024109,676.079163 
z"/>
<path fill="#FFFFFF" opacity="1.000000" stroke="none" 
	d="
M814.080139,671.003052 
	C819.608521,671.701843 817.685608,675.531860 818.103027,679.978821 
	C814.763794,678.792297 810.919189,678.586182 809.738892,676.706848 
	C808.332458,674.467407 810.101196,671.430359 814.080139,671.003052 
z"/>
<path fill="#FCFCFC" opacity="1.000000" stroke="none" 
	d="
M339.948486,679.004395 
	C336.682159,679.506836 334.709015,677.933472 335.230255,675.493958 
	C335.599945,673.763794 337.869293,671.750671 339.665161,671.273621 
	C340.735931,670.989136 343.267975,673.161560 343.829895,674.707031 
	C344.710602,677.129272 343.741272,679.341492 339.948486,679.004395 
z"/>
<path fill="#FCFCFC" opacity="1.000000" stroke="none" 
	d="
M828.950500,671.018250 
	C832.339233,671.930908 833.940125,674.092468 832.780029,676.896484 
	C832.297913,678.062012 829.681885,678.684021 827.962036,678.870972 
	C826.929688,678.983154 825.110840,678.003357 824.798584,677.110840 
	C824.363342,675.866760 824.635010,674.033508 825.307373,672.852905 
	C825.837524,671.921936 827.429321,671.595520 828.950500,671.018250 
z"/>
<path fill="#FCFCFC" opacity="1.000000" stroke="none" 
	d="
M800.022156,671.023315 
	C804.385071,672.565613 802.831177,675.630859 802.755432,678.658936 
	C799.786987,678.870605 796.471985,680.510864 795.288818,676.554688 
	C794.343872,673.394836 796.538269,671.603699 800.022156,671.023315 
z"/>
<path fill="#000000" opacity="1.000000" stroke="none" 
	d="
M222.778641,455.562439 
	C217.464981,471.113312 208.040588,481.848389 191.892014,485.624573 
	C191.097443,485.810364 190.275223,485.982819 189.465622,485.984009 
	C174.829147,486.005493 160.192612,485.999695 145.278625,485.999695 
	C145.278625,456.368469 145.278625,426.971222 145.278625,397.978210 
	C159.229584,397.978210 173.233002,397.891632 187.234848,398.002991 
	C200.777969,398.110718 210.564194,405.465210 217.387756,416.100433 
	C225.001541,427.967346 226.956787,441.325623 222.778641,455.562439 
z"/>
<path fill="#000000" opacity="1.000000" stroke="none" 
	d="
M242.358032,648.149414 
	C248.932968,644.380249 253.688171,644.546143 257.965393,648.436523 
	C262.977509,652.995422 264.360901,659.295471 261.752777,665.684448 
	C259.861145,670.318298 254.437668,673.445618 248.622299,672.967468 
	C242.814011,672.489868 239.395386,668.841736 237.296112,663.726685 
	C235.341995,658.965393 236.382141,654.701782 239.626633,650.877441 
	C240.375351,649.994934 241.251846,649.220703 242.358032,648.149414 
z"/>
<path fill="#000000" opacity="1.000000" stroke="none" 
	d="
M432.109222,671.402832 
	C425.762573,674.635620 418.182037,673.297607 414.657898,665.231323 
	C411.763855,658.607361 414.372070,649.994202 420.496643,646.920593 
	C427.163269,643.574890 434.038239,646.032959 438.026154,653.188171 
	C441.963715,660.253052 439.976410,666.562378 432.109222,671.402832 
z"/>
<path fill="#000000" opacity="1.000000" stroke="none" 
	d="
M296.483032,664.012817 
	C292.421875,671.327759 289.950226,672.557068 281.198364,671.624878 
	C281.198364,663.265686 281.198364,654.883545 281.198364,646.517822 
	C289.824310,644.247009 299.292938,651.528687 296.483032,664.012817 
z"/>
<path fill="#000000" opacity="1.000000" stroke="none" 
	d="
M600.024841,647.286255 
	C606.104309,645.023071 609.617981,645.985046 611.010010,649.817810 
	C613.758301,657.385010 610.934875,660.151062 600.004333,659.914429 
	C600.004333,655.882812 600.004333,651.819763 600.024841,647.286255 
z"/>
<path fill="#000000" opacity="1.000000" stroke="none" 
	d="
M670.255737,648.753906 
	C673.965515,656.657471 671.095337,659.250610 659.000000,658.879883 
	C659.000000,656.821411 659.000000,654.733704 659.000000,652.645996 
	C659.000000,650.528564 659.000000,648.411194 659.000000,644.952698 
	C663.168518,646.289978 666.569031,647.380859 670.255737,648.753906 
z"/>
</svg>